<?xml version="1.0" standalone="no"?>
<!DOCTYPE svg PUBLIC "-//W3C//DTD SVG 20010904//EN"
 "http://www.w3.org/TR/2001/REC-SVG-20010904/DTD/svg10.dtd">
<svg version="1.0" xmlns="http://www.w3.org/2000/svg"
 width="800.000000pt" height="800.000000pt" viewBox="0 0 800.000000 800.000000"
 preserveAspectRatio="xMidYMid meet">
<metadata>
Created by potrace 1.14, written by Peter Selinger 2001-2017
</metadata>
<g transform="translate(0.000000,800.000000) scale(0.100000,-0.100000)"
fill="#000000" stroke="none">
<path d="M3537 7848 c-143 -315 -157 -371 -161 -673 -1 -88 2 -182 6 -210 5
-27 10 -66 13 -85 2 -19 6 -45 9 -57 3 -12 7 -50 11 -84 4 -35 8 -66 10 -69 1
-3 6 -30 9 -61 4 -31 9 -67 11 -80 3 -13 7 -43 10 -66 3 -23 7 -59 10 -80 9
-63 15 -101 20 -140 3 -21 7 -51 10 -68 2 -16 7 -52 10 -80 4 -27 8 -61 11
-75 9 -50 32 -211 39 -275 3 -27 8 -66 11 -85 3 -19 8 -51 10 -70 2 -19 7 -47
10 -62 3 -15 7 -42 9 -60 1 -18 6 -58 10 -88 4 -30 9 -66 10 -80 1 -14 5 -43
9 -65 4 -22 9 -58 11 -80 3 -22 7 -56 10 -75 3 -19 7 -56 10 -81 3 -25 7 -55
10 -67 2 -12 6 -54 10 -94 3 -40 7 -82 10 -93 2 -11 4 -24 4 -28 2 -15 44 -3
46 13 3 18 89 319 149 520 24 80 63 210 86 290 23 80 48 163 55 186 10 29 11
52 4 82 -5 23 -12 58 -15 78 -3 20 -8 46 -10 58 -10 41 -14 63 -50 241 -20 99
-38 189 -39 200 -2 11 -6 34 -10 50 -4 17 -11 50 -15 75 -5 25 -12 59 -15 75
-3 17 -8 39 -10 50 -2 11 -9 45 -15 75 -7 30 -13 64 -15 75 -3 16 -62 310 -81
400 -2 11 -7 36 -10 55 -10 55 -10 56 -48 240 -19 96 -37 186 -40 200 -2 14
-7 36 -10 50 -3 14 -8 37 -10 53 -3 15 -7 35 -10 45 -3 9 -7 33 -10 52 -8 52
-15 82 -19 87 -2 2 -29 -52 -60 -119z"/>
<path d="M4749 7923 c-1 -16 -8 -39 -29 -103 -12 -36 -23 -72 -25 -81 -2 -8
-31 -107 -64 -220 -34 -112 -73 -242 -87 -289 -14 -47 -28 -92 -31 -100 -3 -8
-7 -19 -8 -25 -2 -5 -8 -30 -16 -55 -7 -25 -14 -49 -15 -55 -3 -11 -62 -206
-100 -330 -14 -44 -27 -88 -29 -98 -2 -10 -16 -57 -30 -105 -72 -236 -89 -295
-175 -582 -17 -58 -34 -112 -37 -120 -3 -8 -7 -20 -9 -27 -5 -25 -65 -229 -75
-253 -5 -14 -11 -34 -14 -45 -8 -38 -92 -320 -102 -345 -3 -8 -7 -22 -9 -30
-2 -8 -24 -82 -49 -164 -25 -81 -45 -154 -45 -160 0 -7 -13 -30 -29 -52 -71
-97 -99 -182 -96 -289 1 -35 -6 -87 -17 -125 -11 -36 -21 -69 -22 -75 -2 -5
-6 -17 -9 -25 -8 -22 -67 -222 -72 -246 -3 -11 -21 -72 -40 -135 -20 -63 -38
-121 -39 -129 -2 -8 -11 -37 -20 -65 -19 -63 -59 -198 -61 -205 0 -3 -3 -9 -6
-15 -4 -5 -9 -23 -13 -40 -4 -16 -16 -61 -27 -98 -12 -37 -22 -73 -23 -80 -2
-7 -6 -19 -9 -27 -3 -8 -15 -46 -26 -85 -11 -38 -50 -169 -87 -290 -92 -307
-105 -348 -109 -365 -3 -16 -112 -379 -148 -495 -11 -38 -22 -73 -23 -77 -1
-5 -2 -9 -4 -10 -1 -2 -3 -10 -5 -18 -2 -8 -15 -55 -30 -105 -15 -49 -30 -100
-32 -113 -3 -12 -7 -22 -9 -22 -2 0 -28 13 -59 30 -30 16 -55 28 -55 26 0 -2
-21 2 -47 10 -48 15 -163 19 -218 9 -46 -9 -164 -55 -180 -71 -7 -8 -17 -14
-22 -14 -4 0 -24 -15 -43 -33 -124 -113 -181 -248 -175 -412 1 -51 6 -98 9
-104 4 -6 9 -19 11 -29 4 -23 46 -113 60 -129 5 -7 24 -30 40 -51 39 -51 94
-93 175 -133 36 -18 67 -34 68 -35 17 -12 -64 -156 -128 -227 -64 -70 -81 -94
-105 -141 -61 -122 3 -208 149 -201 96 5 121 37 187 240 45 141 81 228 101
249 7 8 22 26 32 40 19 26 55 47 105 61 113 33 246 173 300 317 26 70 31 216
9 291 -6 23 -11 44 -11 47 0 3 3 43 7 89 4 46 9 88 12 92 3 5 7 20 10 33 5 29
55 189 87 281 50 141 139 367 162 411 7 15 19 47 27 70 7 24 16 44 19 44 4 0
13 17 19 38 7 20 22 57 33 82 12 25 22 47 23 50 1 9 43 100 155 338 26 56 48
104 49 107 0 3 24 51 52 107 29 57 52 105 53 108 3 16 199 391 222 427 9 13
12 23 8 23 -4 0 -2 7 5 15 13 16 100 165 100 172 0 7 83 118 101 135 10 10 30
33 44 52 15 20 52 48 82 63 31 16 58 34 60 41 3 6 11 12 19 12 8 0 14 4 14 8
0 5 13 21 28 38 98 102 134 291 80 426 -7 20 -7 45 1 90 17 97 21 120 26 163
3 22 8 47 10 55 3 8 7 31 9 50 5 37 22 141 29 175 3 11 8 43 11 70 10 68 15
101 26 165 15 79 18 100 25 145 3 22 14 92 25 155 11 63 22 133 25 155 4 22 9
54 11 70 3 17 7 46 10 65 2 19 9 60 14 90 9 53 25 152 35 215 11 75 17 109 21
129 2 11 7 41 9 66 3 25 8 56 10 70 3 14 7 43 11 65 3 22 8 54 10 70 7 39 13
79 19 135 3 25 8 52 10 60 2 8 7 38 10 65 3 28 7 59 9 70 5 25 18 120 22 160
2 17 6 57 10 90 24 215 -13 431 -107 631 -16 34 -29 65 -29 69 0 10 -30 38
-31 28z m-554 -3327 c73 -35 117 -103 117 -180 0 -76 -14 -111 -62 -156 -40
-38 -66 -50 -117 -55 -61 -7 -112 8 -156 46 -129 110 -82 314 82 359 37 10 99
3 136 -14z m-1527 -3137 c55 -20 82 -34 82 -41 0 -5 5 -8 12 -8 24 0 107 -104
131 -163 34 -86 31 -198 -7 -280 -92 -194 -334 -270 -512 -161 -153 94 -215
275 -151 439 59 150 204 240 365 228 29 -2 65 -8 80 -14z"/>
<path d="M4375 3991 c-22 -8 -46 -21 -53 -28 -7 -7 -17 -13 -22 -13 -16 0 -98
-89 -125 -135 -14 -25 -29 -67 -32 -95 -5 -44 -1 -59 41 -145 25 -53 46 -98
46 -100 0 -2 15 -36 34 -77 30 -65 107 -245 201 -473 19 -44 46 -111 60 -150
15 -38 33 -83 40 -100 53 -121 296 -801 309 -867 2 -7 6 -20 9 -28 10 -24 48
-179 66 -267 15 -69 15 -87 4 -119 -21 -59 -25 -92 -25 -184 0 -52 6 -99 15
-120 8 -19 15 -39 15 -43 1 -4 13 -33 29 -65 50 -102 173 -208 289 -247 110
-37 243 -35 350 5 16 6 29 10 29 9 0 -8 127 84 154 111 63 64 118 162 139 250
3 14 6 70 6 125 -1 86 -5 110 -29 170 -63 156 -168 257 -322 310 -96 32 -224
32 -319 0 -76 -27 -85 -28 -82 -17 1 4 -9 41 -22 82 -13 41 -25 80 -26 85 -2
11 -63 212 -72 235 -3 8 -6 20 -8 25 -1 6 -26 84 -54 175 -28 91 -53 170 -54
175 -3 13 -41 139 -76 250 -15 50 -40 131 -55 180 -15 50 -34 110 -42 135 -8
25 -16 52 -18 60 -2 8 -24 85 -50 170 -83 272 -155 516 -160 540 -29 125 -64
189 -104 191 -9 0 -23 2 -31 3 -8 2 -33 -4 -55 -13z m1201 -2432 c87 -33 194
-149 211 -229 12 -58 15 -81 14 -129 -1 -30 -6 -60 -12 -68 -6 -7 -9 -13 -6
-13 21 0 -67 -142 -100 -163 -6 -4 -18 -13 -25 -20 -62 -62 -223 -89 -327 -56
-90 29 -172 103 -217 195 -24 51 -28 71 -28 149 0 77 4 98 27 146 39 80 112
154 184 185 86 36 187 37 279 3z"/>
</g>
</svg>
