<svg width="72" height="147" viewBox="0 0 72 147" fill="none" xmlns="http://www.w3.org/2000/svg">
<path d="M30.6869 59.8482C30.6881 59.9338 30.684 59.9851 30.6743 60C30.6527 60.0331 30.6581 59.9786 30.6869 59.8482C30.6486 57.0627 25.0175 18 25.0175 18C25.0175 18 24.831 11 25.6743 8.5C26.5176 6 28.3906 2 28.3906 2L36.1743 41C36.1743 41 31.0937 58.0059 30.6869 59.8482Z" fill="white"/>
<path d="M30.6743 60C31 59.5 25.0175 18 25.0175 18C25.0175 18 24.831 11 25.6743 8.5C26.5176 6 28.3906 2 28.3906 2L36.1743 41C36.1743 41 30.3486 60.5 30.6743 60Z" stroke="white"/>
<path d="M50 2.5C50 2.5 52.5 7 52.5 12.5C52.5 17.5964 44.7724 63.0482 44.0361 67.7022C44.0311 67.8042 44.0193 67.9036 44 68C43.9633 68.1834 43.9778 68.0707 44.0361 67.7022C44.1596 65.1596 40 61 40 61H32.5L50 2.5Z" fill="white"/>
<path d="M38.5 75.5C35.5 79 18 114.5 18 122.5C18 130.5 15.2336 133 12.7336 134.5C10.2336 136 9.50002 137.5 8.50001 140.5C7.5 143.5 7.23361 145 6.23363 145.5C5.23365 146 -0.49999 146 4.50001 140.5C9.50001 135 6.23364 134 6.23364 134L12.7336 134.5C15.2336 133 18 130.5 18 122.5L15 119.5L31.1538 65.5L35 70.5H43C42.1925 71.2317 41.5 72 38.5 75.5Z" fill="white"/>
<path d="M18 122.5C18 114.5 35.5 79 38.5 75.5C41.5 72 42.1925 71.2317 43 70.5H35L31.1538 65.5L15 119.5L18 122.5ZM18 122.5C18 130.5 15.2336 133 12.7336 134.5M12.7336 134.5C10.2336 136 9.50002 137.5 8.50001 140.5C7.5 143.5 7.23361 145 6.23363 145.5C5.23365 146 -0.49999 146 4.50001 140.5C9.50001 135 6.23364 134 6.23364 134L12.7336 134.5ZM50 2.5C50 2.5 52.5 7 52.5 12.5C52.5 18 43.5 70.5 44 68C44.5 65.5 40 61 40 61H32.5L50 2.5Z" stroke="white"/>
<path d="M39.321 80.0693C41 83 54.3179 114.069 54.3179 122.069L58.3179 118.069C58.3179 118.069 46.142 78.6387 45.321 75.0693C44.5 71.5 37.642 77.1387 39.321 80.0693Z" fill="white" stroke="white"/>
<path d="M72 124.5C72 129.747 67.7467 134 62.5 134C57.2533 134 53 129.747 53 124.5C53 119.253 57.2533 115 62.5 115C67.7467 115 72 119.253 72 124.5ZM55.8646 124.5C55.8646 128.165 58.8354 131.135 62.5 131.135C66.1646 131.135 69.1354 128.165 69.1354 124.5C69.1354 120.835 66.1646 117.865 62.5 117.865C58.8354 117.865 55.8646 120.835 55.8646 124.5Z" fill="white"/>
<path d="M19 126.5C19 131.747 14.7467 136 9.5 136C4.25329 136 0 131.747 0 126.5C0 121.253 4.25329 117 9.5 117C14.7467 117 19 121.253 19 126.5ZM2.86457 126.5C2.86457 130.165 5.83535 133.135 9.5 133.135C13.1646 133.135 16.1354 130.165 16.1354 126.5C16.1354 122.835 13.1646 119.865 9.5 119.865C5.83535 119.865 2.86457 122.835 2.86457 126.5Z" fill="white"/>
<path d="M46 66C46 70.4183 42.4183 74 38 74C33.5817 74 30 70.4183 30 66C30 61.5817 33.5817 58 38 58C42.4183 58 46 61.5817 46 66ZM34.1857 66C34.1857 68.1066 35.8934 69.8143 38 69.8143C40.1066 69.8143 41.8143 68.1066 41.8143 66C41.8143 63.8934 40.1066 62.1857 38 62.1857C35.8934 62.1857 34.1857 63.8934 34.1857 66Z" fill="white"/>
</svg>
